<?xml version="1.0" encoding="UTF-8"?>
<svg width="74px" height="74px" viewBox="0 0 74 74" version="1.1" xmlns="http://www.w3.org/2000/svg" xmlns:xlink="http://www.w3.org/1999/xlink">
    <!-- Generator: Sketch 63 (92445) - https://sketch.com -->
    <title>调查取证</title>
    <desc>Created with Sketch.</desc>
    <g id="页面-1" stroke="none" stroke-width="1" fill="none" fill-rule="evenodd">
        <g id="3-1线索处置" transform="translate(-575.000000, -424.000000)">
            <g id="内容" transform="translate(80.000000, 112.000000)">
                <g id="编组-15" transform="translate(200.000000, 0.000000)">
                    <g id="编组-8" transform="translate(20.000000, 221.000000)">
                        <g id="编组-7">
                            <g id="1">
                                <g id="调查取证" transform="translate(275.000000, 91.000000)">
                                    <path d="M24.1709827,17.7161134 L25.5365519,16.6089489 L27.3258291,16.7404456 L26.6413778,15.1635974 L27.3258291,13.5856379 L25.5365519,13.717505 L24.1709827,12.6103405 L23.7498674,14.2694204 L22.2205928,15.1628565 L23.7498674,16.0562927 L24.1709827,17.7161134 L24.1709827,17.7161134 Z M49.0512318,15.8344153 L50.3164296,17.1071545 L50.8323607,15.4665952 L52.3838577,14.7224355 L50.9449544,13.6500898 L50.6375439,11.9187794 L49.2334558,12.8966698 L47.4926976,12.5688543 L48.0627033,14.2457139 L47.2945475,15.7758901 L49.0512318,15.8344153 Z M35.1073884,13.8378892 L36.7985165,13.3585747 L38.3903843,14.1860774 L38.3826064,12.4658795 L39.6352116,11.286114 L37.9381575,10.7019727 L37.1200012,9.14586762 L36.0796204,10.5045425 L34.3221954,10.7230862 L35.3747986,12.1473242 L35.1073884,13.8378892 L35.1073884,13.8378892 Z M16.6872041,24.1101828 L17.8912902,25.3269896 L18.5072223,23.6801333 L20.1157569,22.8859678 L18.725743,21.8747403 L18.5153705,20.1675067 L17.0405409,21.1887354 L15.3023754,20.9268534 L15.780158,22.570376 L14.9157049,24.1164799 L16.6872041,24.1101828 L16.6872041,24.1101828 Z M50.1912431,57.6621933 L48.8364148,58.7656537 L47.0619526,58.6341571 L47.7412186,60.2076715 L47.0619526,61.7819268 L48.8364148,61.6508006 L50.1912431,62.7553722 L50.6086547,61.0992556 L52.1249662,60.2080419 L50.6086547,59.3175691 L50.1912431,57.6621933 L50.1912431,57.6621933 Z M39.3570606,60.6832818 L37.6788957,61.1611146 L36.1003613,60.335464 L36.1073985,62.0512171 L34.8659045,63.2283896 L36.548514,63.8106789 L37.360374,65.3627094 L38.3933473,64.0066274 L40.1366981,63.7899358 L39.0915024,62.368661 L39.3570606,60.6832818 L39.3570606,60.6832818 Z M26.2717445,58.742688 L25.0191393,57.4751347 L24.503949,59.111249 L22.9631928,59.8554088 L24.3887626,60.9221982 L24.689136,62.6479524 L26.0854463,61.6708029 L27.8121303,61.9941735 L27.2499024,60.3232404 L28.0154656,58.7971388 L26.2717445,58.742688 L26.2717445,58.742688 Z M37.0003704,0 C16.5983143,0 0,16.5982069 0,36.9998148 C0,57.4014226 16.5979439,74 37.0003704,74 C57.4027969,74 74,57.4014226 74,36.9998148 C74.0007408,16.5982069 57.4024264,0 37.0003704,0 Z M37.0003704,71.5430505 C17.9531427,71.5430505 2.45706164,56.0464517 2.45706164,36.9998148 C2.45706164,17.9531778 17.9531427,2.45620862 37.0003704,2.45620862 C56.0479685,2.45620862 71.5436791,17.9520665 71.5436791,36.9998148 C71.5436791,56.0464517 56.0479684,71.5430505 37.0003704,71.5430505 Z M37.0003704,5.97328017 C19.892051,5.97328017 5.97376353,19.8911786 5.97376353,36.9998148 C5.97376353,54.1084509 19.892051,68.0263494 37.0003704,68.0263494 C54.1083194,68.0263494 68.0269772,54.1084509 68.0269772,36.9998148 C68.0269772,19.8911786 54.1083194,5.97328017 37.0003704,5.97328017 Z M60.0480085,50.3795032 L58.7716994,49.2534475 L58.2779907,50.9351226 L56.7427902,51.8378191 L58.1887306,52.7479239 L58.5165117,54.4318215 L59.903933,53.3124333 L61.6246909,53.4491157 C56.3046377,61.3863257 47.2523249,66.6221136 37.0011111,66.6221136 C20.6665032,66.6228545 7.3778516,53.3335469 7.3778516,36.9998148 C7.3778516,20.6660827 20.6661328,7.37677506 37.0011111,7.37677506 C53.3353488,7.37677506 66.6236506,20.6660826 66.6236506,36.9998148 C66.6305675,42.8507649 64.894358,48.5711225 61.6365429,53.4309655 L61.0546853,51.8489316 L61.7998778,50.2509698 L60.0480085,50.3795032 L60.0480085,50.3795032 Z M49.1975295,22.1181017 C45.7562748,19.301395 41.4472112,17.7610294 37.0003704,17.7579701 C27.7750929,17.7579701 19.8268652,24.3253928 18.1012923,33.3745827 L19.3079711,33.6046091 C20.922802,25.1340044 28.364358,18.9862597 37.0003704,18.9862597 C41.1632074,18.9888349 45.1971419,20.4306774 48.4186328,23.0674702 L49.1975295,22.1181017 L49.1975295,22.1181017 Z M37.0003704,55.0129995 C32.8374509,55.0105331 28.803442,53.5685331 25.5821079,50.9314185 L24.8032112,51.880787 C28.2445152,54.6978714 32.5539926,56.2381605 37.0011111,56.2405482 C46.2263887,56.2405482 54.1746164,49.6727551 55.9001892,40.624306 L54.6927697,40.3942796 C53.0779387,48.8652547 45.6374939,55.0129994 37.0003704,55.0129995 L37.0003704,55.0129995 Z" id="形状" fill-opacity="0.5" fill="#1BC27A" fill-rule="nonzero"></path>
                                    <text id="调查取证中" transform="translate(37.500000, 36.500000) rotate(-19.000000) translate(-37.500000, -36.500000) " font-family="PingFangSC-Regular, PingFang SC" font-size="12" font-weight="normal" letter-spacing="-1" fill="#8CE0BC">
                                        <tspan x="10" y="41">调查取证中</tspan>
                                    </text>
                                </g>
                            </g>
                        </g>
                    </g>
                </g>
            </g>
        </g>
    </g>
</svg>